HIERARCHY
ROOT Hips
{
 OFFSET 0.000000 0.000000 0.000000
 CHANNELS 6 Xposition Yposition Zposition Yrotation Xrotation Zrotation
 JOINT Chest
 {
  OFFSET 0.000000 10.597006 0.000597
  CHANNELS 3 Yrotation Xrotation Zrotation
  JOINT Chest2
  {
   OFFSET 0.000000 11.704727 -0.001085
   CHANNELS 3 Yrotation Xrotation Zrotation
   JOINT Chest3
   {
    OFFSET 0.000000 10.576076 0.000000
    CHANNELS 3 Yrotation Xrotation Zrotation
    JOINT Chest4
    {
     OFFSET 0.000000 10.576076 0.000000
     CHANNELS 3 Yrotation Xrotation Zrotation
     JOINT Neck
     {
      OFFSET 0.000000 14.869514 0.000000
      CHANNELS 3 Yrotation Xrotation Zrotation
      JOINT Head
      {
       OFFSET 0.000000 9.843597 -0.002580
       CHANNELS 3 Yrotation Xrotation Zrotation
       End Site
       {
        OFFSET 0.000000 18.838042 -0.001347
       }
      }
     }
     JOINT RightCollar
     {
      OFFSET -3.229945 8.296076 0.000000
      CHANNELS 3 Yrotation Xrotation Zrotation
      JOINT RightShoulder
      {
       OFFSET -15.063183 0.000000 0.000000
       CHANNELS 3 Yrotation Xrotation Zrotation
       JOINT RightElbow
       {
        OFFSET 0.000000 -32.186481 0.000000
        CHANNELS 3 Yrotation Xrotation Zrotation
        JOINT RightWrist
        {
         OFFSET 0.000000 -26.328084 0.000000
         CHANNELS 3 Yrotation Xrotation Zrotation
         End Site
         {
          OFFSET 0.000000 -19.694862 0.000000
         }
        }
       }
      }
     }
     JOINT LeftCollar
     {
      OFFSET 3.229945 8.296076 0.000000
      CHANNELS 3 Yrotation Xrotation Zrotation
      JOINT LeftShoulder
      {
       OFFSET 15.063183 0.000000 0.000000
       CHANNELS 3 Yrotation Xrotation Zrotation
       JOINT LeftElbow
       {
        OFFSET 0.000000 -32.186481 0.000000
        CHANNELS 3 Yrotation Xrotation Zrotation
        JOINT LeftWrist
        {
         OFFSET 0.000000 -26.328084 0.000000
         CHANNELS 3 Yrotation Xrotation Zrotation
         End Site
         {
          OFFSET 0.000000 -19.694862 0.000000
         }
        }
       }
      }
     }
    }
   }
  }
 }
 JOINT RightHip
 {
  OFFSET -8.601177 -0.002926 -0.000299
  CHANNELS 3 Yrotation Xrotation Zrotation
  JOINT RightKnee
  {
   OFFSET 0.000000 -44.528051 0.000282
   CHANNELS 3 Yrotation Xrotation Zrotation
   JOINT RightAnkle
   {
    OFFSET 0.000000 -43.560721 0.000478
    CHANNELS 3 Yrotation Xrotation Zrotation
    JOINT RightToe
    {
     OFFSET 0.000000 -7.669527 17.403862
     CHANNELS 3 Yrotation Xrotation Zrotation
     End Site
     {
      OFFSET 0.000000 -1.627843 7.076630
     }
    }
   }
  }
 }
 JOINT LeftHip
 {
  OFFSET 8.601177 -0.002926 -0.000299
  CHANNELS 3 Yrotation Xrotation Zrotation
  JOINT LeftKnee
  {
   OFFSET 0.000000 -44.528051 0.000282
   CHANNELS 3 Yrotation Xrotation Zrotation
   JOINT LeftAnkle
   {
    OFFSET 0.000000 -43.560721 0.000478
    CHANNELS 3 Yrotation Xrotation Zrotation
    JOINT LeftToe
    {
     OFFSET 0.000000 -7.669527 17.403862
     CHANNELS 3 Yrotation Xrotation Zrotation
     End Site
     {
      OFFSET 0.000000 -1.627843 7.076630
     }
    }
   }
  }
 }
}
MOTION
Frames: 12
Frame Time: 0.008333
337.905776 97.297411 44.638685 -63.992252 -13.428955 1.321650 0.167149 13.214406 -1.761614 0.101458 5.855719 -0.835687 0.101458 5.855719 -0.835687 0.084059 4.391660 -0.627194 -2.114519 10.634016 2.264398 -5.109495 -16.287669 5.331516 -5.748345 0.692388 11.799327 -3.550626 -10.736689 -19.282888 20.671718 -19.187359 2.804935 4.590363 -13.459315 -2.191820 -0.907588 2.515961 -7.698191 0.740064 -16.537009 20.919862 -8.354203 -17.513672 1.355889 -6.442359 -16.037214 -13.658333 -6.351658 17.458325 -5.305836 -5.964355 3.416882 0.684878 1.567160 -7.093131 0.507811 0.001600 0.328555 -0.014204 5.532821 8.826729 5.549477 13.329880 13.136105 -2.975872 16.010598 -5.373063 -5.272101 0.023231 -0.501602 0.785546
338.015996 97.317542 44.527782 -64.089563 -13.426486 1.363235 0.174761 13.257553 -1.793011 0.113434 5.879254 -0.841409 0.113434 5.879254 -0.841409 0.093121 4.409295 -0.631597 -2.107246 10.590945 2.255271 -5.094559 -16.368652 5.313818 -5.749330 0.622045 11.795092 -3.437624 -10.671011 -19.343822 20.678950 -19.042720 2.791207 4.542764 -13.441502 -2.191480 -0.919435 2.554939 -7.676099 0.558548 -16.583147 20.957679 -8.247288 -17.761133 1.322731 -6.526373 -16.096121 -13.646237 -6.395197 17.347798 -5.349423 -5.850397 3.415349 0.741889 1.594278 -7.016780 0.428401 0.002202 0.297924 -0.013073 5.520048 8.631455 5.698896 13.255254 13.636917 -3.064204 15.582014 -5.570016 -5.566781 0.015741 -0.479261 0.797468
338.133506 97.338042 44.424094 -64.195685 -13.430666 1.421067 0.175066 13.293850 -1.846452 0.123798 5.903311 -0.847507 0.123798 5.903311 -0.847507 0.100978 4.427322 -0.636266 -2.095969 10.557051 2.246523 -5.071362 -16.432862 5.294351 -5.742838 0.533180 11.794149 -3.332351 -10.620936 -19.406259 20.691088 -18.883487 2.787677 4.492905 -13.420521 -2.176520 -0.942326 2.581792 -7.655495 0.382004 -16.621977 20.973361 -8.137534 -18.046305 1.235059 -6.630001 -16.081224 -13.560299 -6.453966 17.231905 -5.414878 -5.721036 3.420677 0.790893 1.616116 -6.925805 0.357058 0.006863 0.258950 -0.010914 5.459693 8.437819 5.819353 13.144995 14.160200 -3.132240 14.868347 -5.797390 -5.740057 0.004659 -0.456668 0.717998
338.242104 97.358979 44.326708 -64.294842 -13.439592 1.471260 0.179542 13.342703 -1.880237 0.130105 5.922881 -0.852109 0.130105 5.922881 -0.852109 0.105776 4.441990 -0.639776 -2.080711 10.533789 2.234860 -5.038349 -16.477816 5.266651 -5.726179 0.467019 11.791026 -3.246596 -10.576617 -19.488534 20.707675 -18.753106 2.790366 4.450661 -13.398664 -2.154750 -0.946055 2.620377 -7.624988 0.222406 -16.659792 20.970599 -8.058495 -18.242475 1.232283 -6.708517 -16.140855 -13.496145 -6.522205 17.126193 -5.474223 -5.586433 3.435069 0.831669 1.639708 -6.862644 0.291338 0.008676 0.237658 -0.007978 5.339658 8.254108 5.939703 12.951660 14.710369 -3.200222 13.807413 -6.026050 -5.758175 -0.004498 -0.482413 0.546450
338.348610 97.380123 44.234963 -64.407147 -13.467584 1.509921 0.188249 13.390038 -1.909015 0.137255 5.943966 -0.854521 0.137255 5.943966 -0.854521 0.111187 4.457794 -0.641654 -2.061438 10.516072 2.222924 -4.997025 -16.512766 5.236185 -5.716683 0.398209 11.790190 -3.164736 -10.551363 -19.569234 20.737993 -18.620322 2.797588 4.424075 -13.370288 -2.128699 -0.959244 2.661024 -7.607423 0.059163 -16.692019 20.965820 -7.980438 -18.487070 1.170696 -6.808873 -16.118227 -13.359688 -6.580630 17.038781 -5.524053 -5.436328 3.454056 0.870840 1.653667 -6.800267 0.234102 0.011420 0.217413 -0.008995 5.205204 8.076848 6.050006 12.603350 15.297845 -3.225100 12.406665 -6.265821 -5.643343 -0.013779 -0.542809 0.304756
338.444006 97.399605 44.146747 -64.527398 -13.483305 1.536801 0.201185 13.435760 -1.915837 0.142436 5.960028 -0.857307 0.142436 5.960028 -0.857307 0.115118 4.469832 -0.643793 -2.033523 10.505497 2.209644 -4.937853 -16.535119 5.198680 -5.679254 0.347450 11.792850 -3.107045 -10.534550 -19.673235 20.773276 -18.516596 2.808638 4.414189 -13.348501 -2.101390 -0.935793 2.710852 -7.584871 -0.115419 -16.724646 20.957920 -7.914876 -18.635231 1.198308 -6.903424 -16.179413 -13.253540 -6.627523 16.947598 -5.551243 -5.284790 3.472091 0.896594 1.665759 -6.740276 0.182932 0.012433 0.196688 -0.008825 5.074184 7.908144 6.157566 12.040777 15.887392 -3.236401 10.741943 -6.534002 -5.525267 -0.007840 -0.624196 0.115723
338.535419 97.418174 44.062525 -64.657187 -13.505166 1.539943 0.218614 13.473280 -1.902620 0.149337 5.976850 -0.856452 0.149337 5.976850 -0.856452 0.120304 4.482439 -0.643220 -2.008449 10.500939 2.194721 -4.882977 -16.546210 5.158831 -5.656936 0.295393 11.800690 -3.048260 -10.539730 -19.783834 20.828935 -18.431419 2.814476 4.412864 -13.308796 -2.064903 -0.937212 2.759089 -7.560384 -0.251971 -16.762962 20.916627 -7.874484 -18.835603 1.171743 -7.037755 -16.167705 -13.060284 -6.656545 16.861602 -5.547630 -5.131620 3.499809 0.909654 1.676838 -6.682033 0.144202 0.013084 0.174626 -0.011926 4.948951 7.744429 6.262580 11.214780 16.480274 -3.237984 8.989459 -6.830640 -5.520248 -0.003107 -0.712828 0.060828
338.614911 97.437533 43.988383 -64.780270 -13.525953 1.537451 0.233912 13.516436 -1.877629 0.152138 5.992586 -0.854081 0.152138 5.992586 -0.854081 0.122401 4.494238 -0.641472 -1.976243 10.499927 2.177846 -4.813172 -16.551291 5.111726 -5.628289 0.255333 11.818804 -2.999829 -10.554005 -19.926002 20.896242 -18.367126 2.822131 4.421843 -13.280715 -2.043255 -0.930506 2.814107 -7.537662 -0.365930 -16.806727 20.881789 -7.844665 -18.939420 1.233685 -7.202462 -16.260949 -12.918501 -6.683238 16.782904 -5.537614 -4.986561 3.531651 0.916271 1.686221 -6.624025 0.110614 0.011372 0.145648 -0.012576 4.848499 7.614127 6.364409 10.046154 17.024074 -3.277817 7.249705 -7.144385 -5.709516 0.011541 -0.804791 0.184500
338.691080 97.457304 43.919775 -64.926108 -13.559903 1.527305 0.253707 13.557105 -1.849597 0.157793 6.011410 -0.850125 0.157793 6.011410 -0.850125 0.126626 4.508349 -0.638564 -1.944157 10.497899 2.162098 -4.744175 -16.558141 5.066920 -5.594598 0.213092 11.846817 -2.953809 -10.595438 -20.070543 20.972693 -18.306430 2.825713 4.436076 -13.257916 -2.021133 -0.934962 2.862039 -7.523274 -0.468648 -16.845632 20.840341 -7.814632 -19.098442 1.230511 -7.411795 -16.280123 -12.693719 -6.690678 16.707508 -5.521087 -4.840852 3.586506 0.924036 1.701780 -6.571759 0.081271 0.011870 0.115114 -0.015443 4.788340 7.504512 6.462767 8.516907 17.547145 -3.372120 5.668954 -7.473011 -6.093503 0.024200 -0.901227 0.453012
338.761152 97.477090 43.863856 -65.071301 -13.588080 1.530967 0.271090 13.592792 -1.828744 0.163520 6.026972 -0.845430 0.163520 6.026972 -0.845430 0.130891 4.520014 -0.635104 -1.907002 10.503680 2.145239 -4.664325 -16.550864 5.017124 -5.562071 0.198576 11.872689 -2.910438 -10.644884 -20.233536 21.037732 -18.276502 2.829828 4.451555 -13.236334 -2.006872 -0.942560 2.923464 -7.510160 -0.542189 -16.885637 20.806184 -7.773547 -19.157673 1.305814 -7.635248 -16.400512 -12.510526 -6.698901 16.627785 -5.519236 -4.708588 3.648451 0.919402 1.731633 -6.523794 0.063947 0.009891 0.083433 -0.016633 4.766670 7.417297 6.544385 6.606229 18.012098 -3.573516 4.339971 -7.808695 -6.576825 0.037526 -0.989245 0.777653
338.831294 97.496835 43.815075 -65.239754 -13.623621 1.536856 0.289046 13.626633 -1.812102 0.171981 6.045615 -0.838539 0.171981 6.045615 -0.838539 0.137189 4.533986 -0.630026 -1.874075 10.506980 2.126864 -4.592140 -16.547972 4.966485 -5.522326 0.176479 11.895948 -2.871127 -10.709671 -20.390630 21.093955 -18.249142 2.824050 4.455631 -13.224455 -1.992238 -0.954729 2.973476 -7.513641 -0.613609 -16.921789 20.773648 -7.727253 -19.256522 1.311195 -7.880068 -16.435911 -12.248357 -6.694171 16.545990 -5.517314 -4.567096 3.727042 0.906312 1.759811 -6.483232 0.054923 0.010636 0.055424 -0.018033 4.775012 7.338161 6.608231 4.414784 18.463389 -3.878114 3.312705 -8.167423 -7.075343 0.038949 -1.062619 1.087541
338.898971 97.517073 43.779931 -65.425799 -13.662034 1.560840 0.305737 13.665641 -1.804992 0.179980 6.064367 -0.831154 0.179980 6.064367 -0.831154 0.143134 4.548041 -0.624574 -1.834934 10.512018 2.108679 -4.507915 -16.542189 4.913289 -5.486189 0.170477 11.913402 -2.827230 -10.784825 -20.559755 21.121873 -18.248784 2.826603 4.466250 -13.224858 -1.992270 -0.943110 3.026296 -7.521818 -0.678154 -16.970585 20.731552 -7.680646 -19.234513 1.407165 -8.128845 -16.570091 -12.031955 -6.680343 16.451144 -5.539622 -4.418415 3.840961 0.892693 1.786722 -6.458632 0.053517 0.009504 0.026334 -0.019139 4.807929 7.287438 6.631206 2.085605 18.880950 -4.268514 2.531614 -8.565456 -7.495575 0.031370 -1.101573 1.319895
